<svg width="37" height="35" viewBox="0 0 37 35" fill="none" xmlns="http://www.w3.org/2000/svg">
<path d="M35.5454 0.0878906L19.9518 11.626L22.8516 4.82627L35.5454 0.0878906Z" fill="#E17726"/>
<path d="M0.924026 0.101562L13.5839 4.82716L16.3373 11.716L0.924026 0.101562ZM29.2684 24.6263L36.1606 24.7575L33.7518 32.9402L25.3419 30.6247L29.2684 24.6263ZM7.16275 24.6263L11.0746 30.6247L2.6789 32.9403L0.284794 24.7575L7.16275 24.6263Z" fill="#E27625"/>
<path d="M15.9646 9.96087L16.2462 19.0579L7.81812 18.6745L10.2155 15.0577L10.2459 15.0229L15.9646 9.96087ZM20.3827 9.85938L26.1888 15.0232L26.2189 15.0578L28.6162 18.6746L20.1899 19.0579L20.3827 9.85938ZM11.3232 24.6523L15.9251 28.238L10.5793 30.8189L11.3232 24.6523ZM25.1123 24.6517L25.8407 30.819L20.5098 28.2377L25.1123 24.6517Z" fill="#E27625"/>
<path d="M20.6263 27.8984L26.0359 30.5178L21.0039 32.9092L21.0562 31.3287L20.6263 27.8984ZM15.8045 27.8996L15.3915 31.3028L15.4254 32.9074L10.3817 30.5178L15.8045 27.8996Z" fill="#D5BFB2"/>
<path d="M14.243 20.2461L15.6566 23.217L10.8438 21.8071L14.243 20.2461ZM22.1904 20.2464L25.6056 21.8071L20.7771 23.2165L22.1904 20.2464Z" fill="#233447"/>
<path d="M11.6892 24.6225L10.9113 31.0162L6.7416 24.7623L11.6892 24.6225ZM24.7422 24.6226L29.6899 24.7623L25.5046 31.0165L24.7422 24.6226ZM28.7363 18.3135L25.1355 21.9832L22.3593 20.7145L21.0301 23.5088L20.1588 18.7037L28.7363 18.3135ZM7.693 18.3135L16.2722 18.7037L15.4007 23.5088L14.0713 20.715L11.3098 21.9833L7.693 18.3135Z" fill="#CC6228"/>
<path d="M7.45222 17.5601L11.5261 21.694L11.6672 25.7752L7.45222 17.5601ZM28.9867 17.5527L24.764 25.7824L24.923 21.694L28.9867 17.5527ZM16.0748 17.8119L16.2388 18.844L16.6439 21.415L16.3834 29.3113L15.152 22.968L15.1515 22.9024L16.0748 17.8119ZM20.3578 17.7976L21.2835 22.9024L21.2831 22.968L20.0485 29.3272L19.9996 27.7366L19.807 21.3681L20.3578 17.7976Z" fill="#E27525"/>
<path d="M25.2851 21.5273L25.1472 25.0731L20.8496 28.4215L19.9809 27.8077L20.9547 22.7916L25.2851 21.5273ZM11.1645 21.5273L15.4798 22.7916L16.4537 27.8077L15.5849 28.4215L11.2871 25.0729L11.1645 21.5273Z" fill="#F5841F"/>
<path d="M9.56116 29.7354L15.0594 32.3405L15.0362 31.228L15.4962 30.8242H20.938L21.4147 31.2266L21.3795 32.3383L26.843 29.7419L24.1844 31.9388L20.9698 34.1467H15.4521L12.2396 31.9297L9.56116 29.7354Z" fill="#C0AC9D"/>
<path d="M20.2338 27.5527L21.0112 28.102L21.4667 31.7366L20.8075 31.18H15.6294L14.9827 31.7478L15.4233 28.1022L16.201 27.5527H20.2338Z" fill="#161616"/>
<path d="M34.5151 0.408203L36.387 6.02359L35.218 11.7014L36.0504 12.3435L34.924 13.2029L35.7706 13.8568L34.6496 14.8776L35.3378 15.376L33.5113 17.509L26.0203 15.3279L25.9554 15.2931L20.5572 10.7394L34.5151 0.408203ZM1.91786 0.408203L15.8759 10.7394L10.4776 15.2931L10.4127 15.3279L2.92163 17.509L1.09522 15.376L1.78286 14.878L0.662532 13.8568L1.50746 13.2036L0.364138 12.3418L1.22795 11.6993L0.0460129 6.02387L1.91786 0.408203Z" fill="#763E1A"/>
<path d="M25.6537 14.8497L33.5909 17.1606L36.1696 25.1082H29.3664L24.679 25.1673L28.088 18.5226L25.6537 14.8497ZM10.7789 14.8497L8.34419 18.5226L11.7536 25.1673L7.06828 25.1082H0.277348L2.84151 17.1608L10.7789 14.8497ZM23.2393 4.78809L21.0192 10.7842L20.5481 18.8843L20.3678 21.4232L20.3535 27.9089H16.079L16.0651 21.4354L15.8842 18.8821L15.4129 10.7842L13.1932 4.78809H23.2393Z" fill="#F5841F"/>
</svg>
