<svg width="35" height="35" viewBox="0 0 35 35" fill="none" xmlns="http://www.w3.org/2000/svg">
<path d="M28.7073 35L27.3906 33.6833L31.3235 29.6643H22.009V27.7504H31.3235L27.3906 23.7314L28.7073 22.4147L35 28.7073L28.7073 35ZM3.09082 30.6212C2.21047 30.6212 1.47556 30.3264 0.8861 29.737C0.295366 29.1463 0 28.4107 0 27.5303V3.09082C0 2.21047 0.295366 1.47556 0.8861 0.8861C1.47556 0.295366 2.21047 0 3.09082 0H27.5303C28.4107 0 29.1456 0.295366 29.7351 0.8861C30.3258 1.47556 30.6212 2.21047 30.6212 3.09082V18.0416C30.3201 17.9651 30.0075 17.9076 29.6834 17.8694C29.358 17.8311 29.0289 17.812 28.6959 17.812C25.6784 17.812 23.1101 18.8716 20.9908 20.9908C18.8729 23.1088 17.8139 25.681 17.8139 28.7073C17.8139 29.0429 17.833 29.3702 17.8713 29.6891C17.9096 30.0081 17.9663 30.3188 18.0416 30.6212H3.09082ZM14.3537 23.9228H16.2675V16.2675H23.9228V14.3537H16.2675V6.69838H14.3537V14.3537H6.69838V16.2675H14.3537V23.9228Z" fill="#F8F8F8"/>
</svg>
