<svg width="171" height="30" viewBox="0 0 171 30" fill="none" xmlns="http://www.w3.org/2000/svg">
<path d="M0 24.5023V20.1244H17.3952C18.3131 20.1244 18.9735 20 19.3765 19.7511C19.7795 19.4796 19.981 18.948 19.981 18.1561V16.9005C19.981 16.1765 19.7795 15.6674 19.3765 15.3733C18.9735 15.0566 18.3243 14.8982 17.4288 14.8982H6.5148C5.23871 14.8982 4.1753 14.7851 3.32457 14.5588C2.49622 14.31 1.83579 13.948 1.34326 13.4729C0.850731 12.9751 0.503722 12.3643 0.302233 11.6403C0.123132 10.8937 0.0335815 10.0226 0.0335815 9.02715V7.87331C0.0335815 6.69683 0.156714 5.69005 0.402978 4.85294C0.649242 4.01584 1.02983 3.34842 1.54475 2.85068C2.05966 2.33032 2.73129 1.95702 3.55964 1.73077C4.38798 1.4819 5.37303 1.35747 6.5148 1.35747H13.6341V5.73529H6.98495C6.20138 5.73529 5.6193 5.89367 5.23871 6.21041C4.88051 6.50453 4.70141 7.11539 4.70141 8.04299V8.78959C4.70141 9.51358 4.86931 10.0339 5.20513 10.3507C5.54094 10.6448 6.12302 10.7919 6.95136 10.7919H17.6639C18.9399 10.7919 20.0146 10.905 20.8877 11.1312C21.7832 11.3348 22.5108 11.6742 23.0705 12.1493C23.6302 12.6244 24.0331 13.2353 24.2794 13.9819C24.5257 14.7285 24.6488 15.6222 24.6488 16.6629V18.4955C24.6488 19.5814 24.5257 20.5091 24.2794 21.2783C24.0331 22.0249 23.6302 22.6357 23.0705 23.1109C22.5108 23.586 21.7832 23.9367 20.8877 24.1629C20.0146 24.3891 18.9399 24.5023 17.6639 24.5023H0Z" fill="white"/>
<path d="M42.8363 6.1086C44.5378 6.1086 45.9482 6.25566 47.0676 6.54977C48.187 6.82127 49.0825 7.27376 49.7541 7.90724C50.4257 8.5181 50.8959 9.33258 51.1645 10.3507C51.4556 11.3688 51.6011 12.6131 51.6011 14.0837V16.5611C51.6011 18.0317 51.4556 19.276 51.1645 20.2941C50.8959 21.2896 50.4257 22.1041 49.7541 22.7376C49.0825 23.3484 48.187 23.8009 47.0676 24.095C45.9482 24.3665 44.5378 24.5023 42.8363 24.5023H32.6947V30H27.6911V14.0837C27.6911 12.6131 27.8254 11.3688 28.094 10.3507C28.3851 9.33258 28.8664 8.5181 29.538 7.90724C30.2097 7.27376 31.1052 6.82127 32.2246 6.54977C33.3439 6.25566 34.7544 6.1086 36.4558 6.1086H42.8363ZM46.5974 14.2195C46.5974 13.405 46.5303 12.7489 46.3959 12.2511C46.284 11.7534 46.0601 11.3688 45.7243 11.0973C45.3885 10.8258 44.9296 10.6448 44.3475 10.5543C43.7878 10.4638 43.0714 10.4186 42.1983 10.4186H36.6237C35.8402 10.4186 35.1909 10.4751 34.676 10.5882C34.1611 10.7014 33.7581 10.905 33.4671 11.1991C33.176 11.4706 32.9746 11.8552 32.8626 12.3529C32.7507 12.8281 32.6947 13.4389 32.6947 14.1855V20.1923H42.2318C43.105 20.1923 43.8214 20.1584 44.3811 20.0905C44.9408 20 45.3885 19.819 45.7243 19.5475C46.0601 19.276 46.284 18.8914 46.3959 18.3937C46.5303 17.8959 46.5974 17.2285 46.5974 16.3914V14.2195Z" fill="white"/>
<path d="M55.2415 24.5023V13.8462C55.2415 12.4661 55.3982 11.2896 55.7117 10.3167C56.0251 9.34389 56.5176 8.55204 57.1892 7.94118C57.8833 7.30769 58.7676 6.84389 59.8422 6.54977C60.9168 6.25566 62.2265 6.1086 63.7712 6.1086H67.0286V10.2149H63.9055C63.2115 10.2149 62.6294 10.2715 62.1593 10.3846C61.6892 10.4977 61.3086 10.69 61.0175 10.9615C60.7489 11.233 60.5474 11.6063 60.4131 12.0814C60.3011 12.5566 60.2451 13.1561 60.2451 13.8801V24.5023H55.2415Z" fill="white"/>
<path d="M70.0318 24.5023V6.58371H75.1362V24.5023H70.0318ZM71.7444 5.05656C71.1176 5.05656 70.6698 4.93213 70.4012 4.68326C70.1549 4.43439 70.0318 4.03846 70.0318 3.49548V1.52715C70.0318 0.984164 70.1549 0.599549 70.4012 0.373304C70.6698 0.124435 71.1176 0 71.7444 0H73.3899C74.0392 0 74.4869 0.124435 74.7332 0.373304C75.0018 0.599549 75.1362 0.984164 75.1362 1.52715V3.49548C75.1362 4.03846 75.0018 4.43439 74.7332 4.68326C74.4869 4.93213 74.0392 5.05656 73.3899 5.05656H71.7444Z" fill="white"/>
<path d="M97.5528 24.5023V14.2534C97.5528 13.4842 97.4857 12.862 97.3514 12.3869C97.2394 11.8891 97.0267 11.5045 96.7133 11.233C96.4223 10.9389 96.0081 10.7353 95.4708 10.6222C94.9559 10.5091 94.2954 10.4525 93.4895 10.4525H88.0493C87.2657 10.4525 86.6053 10.5091 86.068 10.6222C85.5531 10.7353 85.1389 10.9389 84.8255 11.233C84.512 11.5045 84.2882 11.8891 84.1538 12.3869C84.0419 12.862 83.9859 13.4842 83.9859 14.2534V24.5023H78.9823V14.0837C78.9823 12.6131 79.1166 11.3688 79.3853 10.3507C79.6763 9.33258 80.1576 8.5181 80.8293 7.90724C81.5009 7.27376 82.3964 6.82127 83.5158 6.54977C84.6352 6.25566 86.0344 6.1086 87.7135 6.1086H93.7917C95.4932 6.1086 96.9036 6.25566 98.023 6.54977C99.1424 6.82127 100.038 7.27376 100.71 7.90724C101.381 8.5181 101.851 9.33258 102.12 10.3507C102.411 11.3688 102.556 12.6131 102.556 14.0837V24.5023H97.5528Z" fill="white"/>
<path d="M107.475 24.5023V10.2149H104.922V6.1086H107.475V0.91629H112.579V6.1086H118.321V10.2149H112.579V24.5023H107.475Z" fill="white"/>
<path d="M134.113 24.5023V1.35747H139.217V24.5023H134.113Z" fill="white"/>
<path d="M164.72 27.8281L161.429 24.2647H151.825C150.124 24.2647 148.713 24.1403 147.594 23.8914C146.474 23.6199 145.579 23.1787 144.907 22.5679C144.236 21.957 143.754 21.1538 143.463 20.1584C143.195 19.1629 143.06 17.9299 143.06 16.4593V9.29864C143.06 7.85068 143.195 6.61765 143.463 5.59955C143.754 4.58145 144.236 3.76697 144.907 3.15611C145.579 2.52263 146.474 2.07014 147.594 1.79864C148.713 1.50453 150.124 1.35747 151.825 1.35747H160.523C162.224 1.35747 163.634 1.50453 164.754 1.79864C165.873 2.07014 166.769 2.52263 167.44 3.15611C168.112 3.76697 168.582 4.58145 168.851 5.59955C169.142 6.61765 169.287 7.85068 169.287 9.29864V16.4593C169.287 18.1561 169.097 19.5475 168.716 20.6335C168.336 21.6968 167.653 22.5226 166.668 23.1109L171 27.8281H164.72ZM164.183 9.5362C164.183 8.81222 164.116 8.21267 163.981 7.73756C163.87 7.26244 163.668 6.87783 163.377 6.58371C163.086 6.28959 162.683 6.08597 162.168 5.97285C161.676 5.85973 161.06 5.80317 160.321 5.80317H152.06C151.254 5.80317 150.594 5.85973 150.079 5.97285C149.586 6.08597 149.194 6.28959 148.903 6.58371C148.612 6.87783 148.411 7.26244 148.299 7.73756C148.209 8.21267 148.165 8.81222 148.165 9.5362V15.4412C148.165 16.3688 148.198 17.1267 148.265 17.7149C148.355 18.3032 148.534 18.767 148.803 19.1063C149.071 19.4457 149.463 19.6833 149.978 19.819C150.493 19.9321 151.187 19.9887 152.06 19.9887H160.321C161.06 19.9887 161.676 19.9434 162.168 19.8529C162.683 19.7398 163.086 19.5475 163.377 19.276C163.668 18.9819 163.87 18.5973 163.981 18.1222C164.116 17.6244 164.183 17.0023 164.183 16.2557V9.5362Z" fill="white"/>
</svg>
