<svg width="33" height="26" viewBox="0 0 33 26" fill="none" xmlns="http://www.w3.org/2000/svg">
<path d="M24.2223 0C25.9305 0 27.2418 1.36987 28.2133 2.84375L28.5423 3.36538L28.8435 3.88537C28.9393 4.05437 29.0304 4.22337 29.1184 4.38587C30.334 6.67225 31.392 9.65738 32.0916 12.6068C32.7867 15.5334 33.1712 18.59 32.9257 20.9934C32.6785 23.4065 31.497 26 28.8559 26C26.4866 26 24.6192 24.6675 23.1025 23.3659L21.3881 21.853C19.9625 20.6245 18.4025 19.5 16.4997 19.5C14.5969 19.5 13.0353 20.6245 11.6128 21.853L9.89842 23.3643C8.37862 24.6675 6.51129 26 4.14355 26C1.50087 26 0.319316 23.4065 0.073737 20.9934C-0.170297 18.5884 0.212744 15.5334 0.907777 12.6068C1.60744 9.65738 2.66544 6.67225 3.88098 4.38587L4.1559 3.88375L4.45708 3.36538L4.78607 2.84375C5.75757 1.36987 7.06887 0 8.7771 0C9.56481 0 10.3479 0.2015 11.1171 0.43875L12.0329 0.7345C12.1843 0.78325 12.3341 0.830375 12.4839 0.87425C13.82 1.27725 15.1869 1.625 16.4997 1.625C17.8125 1.625 19.1794 1.27725 20.5155 0.87425L21.8823 0.440375C22.6515 0.2015 23.4346 0 24.2223 0ZM11.0939 6.5C10.0698 6.5 9.08767 6.92801 8.36353 7.68988C7.6394 8.45175 7.23258 9.48506 7.23258 10.5625C7.23258 11.6399 7.6394 12.6733 8.36353 13.4351C9.08767 14.197 10.0698 14.625 11.0939 14.625C12.118 14.625 13.1001 14.197 13.8242 13.4351C14.5484 12.6733 14.9552 11.6399 14.9552 10.5625C14.9552 9.48506 14.5484 8.45175 13.8242 7.68988C13.1001 6.92801 12.118 6.5 11.0939 6.5ZM21.9055 6.5C21.4959 6.5 21.103 6.67121 20.8134 6.97595C20.5237 7.2807 20.361 7.69402 20.361 8.125V8.9375H19.5887C19.1791 8.9375 18.7863 9.10871 18.4966 9.41345C18.2069 9.7182 18.0442 10.1315 18.0442 10.5625C18.0442 10.9935 18.2069 11.4068 18.4966 11.7115C18.7863 12.0163 19.1791 12.1875 19.5887 12.1875H20.361V13C20.361 13.431 20.5237 13.8443 20.8134 14.149C21.103 14.4538 21.4959 14.625 21.9055 14.625C22.3151 14.625 22.708 14.4538 22.9977 14.149C23.2873 13.8443 23.45 13.431 23.45 13V12.1875H24.2223C24.6319 12.1875 25.0248 12.0163 25.3144 11.7115C25.6041 11.4068 25.7668 10.9935 25.7668 10.5625C25.7668 10.1315 25.6041 9.7182 25.3144 9.41345C25.0248 9.10871 24.6319 8.9375 24.2223 8.9375H23.45V8.125C23.45 7.69402 23.2873 7.2807 22.9977 6.97595C22.708 6.67121 22.3151 6.5 21.9055 6.5ZM11.0939 9.75C11.2987 9.75 11.4951 9.8356 11.64 9.98798C11.7848 10.1403 11.8661 10.347 11.8661 10.5625C11.8661 10.778 11.7848 10.9847 11.64 11.137C11.4951 11.2894 11.2987 11.375 11.0939 11.375C10.8891 11.375 10.6926 11.2894 10.5478 11.137C10.403 10.9847 10.3216 10.778 10.3216 10.5625C10.3216 10.347 10.403 10.1403 10.5478 9.98798C10.6926 9.8356 10.8891 9.75 11.0939 9.75Z" fill="#F8F8F8"/>
</svg>
